<mxfile host="app.diagrams.net" modified="2023-05-13T04:51:26.035Z" agent="Mozilla/5.0 (Macintosh; Intel Mac OS X 10.15; rv:109.0) Gecko/20100101 Firefox/114.0" etag="jHsrXw1MtYzi7uve9KgX" version="21.1.4" type="device">
  <diagram name="Page-1" id="n25hRnIoC0pq8ECcILUa">
    <mxGraphModel dx="2265" dy="1315" grid="1" gridSize="10" guides="1" tooltips="1" connect="1" arrows="1" fold="1" page="1" pageScale="1" pageWidth="3300" pageHeight="4681" math="0" shadow="0">
      <root>
        <mxCell id="0" />
        <mxCell id="1" parent="0" />
        <mxCell id="LDrWbwDbZ2x0m2KrkAPK-54" value="&lt;font color=&quot;#000000&quot;&gt;AWS Step Functions workflow&lt;/font&gt;" style="sketch=0;outlineConnect=0;gradientColor=none;html=1;whiteSpace=wrap;fontSize=12;fontStyle=0;shape=mxgraph.aws4.group;grIcon=mxgraph.aws4.group_aws_step_functions_workflow;strokeColor=#000000;fillColor=none;verticalAlign=top;align=left;spacingLeft=30;fontColor=#E8E8E8;dashed=0;" vertex="1" parent="1">
          <mxGeometry x="860" y="170" width="130" height="335" as="geometry" />
        </mxCell>
        <mxCell id="LDrWbwDbZ2x0m2KrkAPK-11" value="" style="rounded=0;whiteSpace=wrap;html=1;rotation=90;" vertex="1" parent="1">
          <mxGeometry x="103.42" y="335.99" width="427.72" height="68.28" as="geometry" />
        </mxCell>
        <mxCell id="LDrWbwDbZ2x0m2KrkAPK-1" value="&lt;div&gt;User&lt;/div&gt;&lt;div&gt;&lt;br&gt;&lt;/div&gt;" style="shape=umlActor;verticalLabelPosition=bottom;verticalAlign=top;html=1;outlineConnect=0;" vertex="1" parent="1">
          <mxGeometry x="95.53" y="400" width="20" height="40" as="geometry" />
        </mxCell>
        <mxCell id="LDrWbwDbZ2x0m2KrkAPK-3" value="&lt;div&gt;Web application&lt;/div&gt;" style="sketch=0;pointerEvents=1;shadow=0;dashed=0;html=1;strokeColor=none;fillColor=#000000;aspect=fixed;labelPosition=center;verticalLabelPosition=bottom;verticalAlign=top;align=center;outlineConnect=0;shape=mxgraph.vvd.web_browser;" vertex="1" parent="1">
          <mxGeometry x="186.47" y="400" width="56.34" height="40" as="geometry" />
        </mxCell>
        <mxCell id="LDrWbwDbZ2x0m2KrkAPK-8" value="xlsx, csv" style="shape=image;html=1;verticalAlign=top;verticalLabelPosition=bottom;labelBackgroundColor=#ffffff;imageAspect=0;aspect=fixed;image=https://cdn1.iconfinder.com/data/icons/100-basic-for-user-interface/32/73-files-128.png" vertex="1" parent="1">
          <mxGeometry x="136.47" y="369.07" width="25.93" height="25.93" as="geometry" />
        </mxCell>
        <mxCell id="LDrWbwDbZ2x0m2KrkAPK-12" value="input" style="sketch=0;outlineConnect=0;fontColor=#232F3E;gradientColor=none;strokeColor=#000000;fillColor=#ffffff;dashed=0;verticalLabelPosition=bottom;verticalAlign=top;align=center;html=1;fontSize=12;fontStyle=0;aspect=fixed;shape=mxgraph.aws4.resourceIcon;resIcon=mxgraph.aws4.lambda_function;" vertex="1" parent="1">
          <mxGeometry x="379.9999999999999" y="215" width="60" height="60" as="geometry" />
        </mxCell>
        <mxCell id="LDrWbwDbZ2x0m2KrkAPK-15" value="&lt;div&gt;&lt;span style=&quot;background-color: rgb(255, 255, 255);&quot;&gt;input files&lt;/span&gt;&lt;/div&gt;&lt;div&gt;&lt;span style=&quot;background-color: rgb(255, 255, 255);&quot;&gt;&lt;br&gt;&lt;/span&gt;&lt;/div&gt;" style="sketch=0;outlineConnect=0;fontColor=#232F3E;gradientColor=none;fillColor=#000000;strokeColor=none;dashed=0;verticalLabelPosition=bottom;verticalAlign=top;align=center;html=1;fontSize=12;fontStyle=0;aspect=fixed;pointerEvents=1;shape=mxgraph.aws4.bucket;" vertex="1" parent="1">
          <mxGeometry x="550" y="220" width="48.08" height="50" as="geometry" />
        </mxCell>
        <mxCell id="LDrWbwDbZ2x0m2KrkAPK-18" value="API&lt;br&gt;Gateway" style="sketch=0;outlineConnect=0;fontColor=#232F3E;gradientColor=none;fillColor=#000000;strokeColor=none;dashed=0;verticalLabelPosition=bottom;verticalAlign=top;align=center;html=1;fontSize=12;fontStyle=0;aspect=fixed;pointerEvents=1;shape=mxgraph.aws4.endpoint;" vertex="1" parent="1">
          <mxGeometry x="302.86999999999995" y="170" width="30" height="30" as="geometry" />
        </mxCell>
        <mxCell id="LDrWbwDbZ2x0m2KrkAPK-38" style="edgeStyle=none;rounded=0;orthogonalLoop=1;jettySize=auto;html=1;exitX=0;exitY=0.5;exitDx=0;exitDy=0;exitPerimeter=0;" edge="1" parent="1" source="LDrWbwDbZ2x0m2KrkAPK-19" target="LDrWbwDbZ2x0m2KrkAPK-36">
          <mxGeometry relative="1" as="geometry" />
        </mxCell>
        <mxCell id="LDrWbwDbZ2x0m2KrkAPK-19" value="input/output" style="sketch=0;points=[[0,0,0],[0.25,0,0],[0.5,0,0],[0.75,0,0],[1,0,0],[0,1,0],[0.25,1,0],[0.5,1,0],[0.75,1,0],[1,1,0],[0,0.25,0],[0,0.5,0],[0,0.75,0],[1,0.25,0],[1,0.5,0],[1,0.75,0]];outlineConnect=0;fontColor=#232F3E;gradientColor=none;gradientDirection=north;fillColor=none;strokeColor=#000000;dashed=0;verticalLabelPosition=bottom;verticalAlign=top;align=center;html=1;fontSize=12;fontStyle=0;aspect=fixed;shape=mxgraph.aws4.resourceIcon;resIcon=mxgraph.aws4.dynamodb;" vertex="1" parent="1">
          <mxGeometry x="680" y="391" width="68" height="68" as="geometry" />
        </mxCell>
        <mxCell id="LDrWbwDbZ2x0m2KrkAPK-22" value="output files" style="sketch=0;outlineConnect=0;fontColor=#232F3E;gradientColor=none;fillColor=#000000;strokeColor=none;dashed=0;verticalLabelPosition=bottom;verticalAlign=top;align=center;html=1;fontSize=12;fontStyle=0;aspect=fixed;pointerEvents=1;shape=mxgraph.aws4.bucket;" vertex="1" parent="1">
          <mxGeometry x="905.76" y="607.96" width="38.47" height="40" as="geometry" />
        </mxCell>
        <mxCell id="LDrWbwDbZ2x0m2KrkAPK-32" value="xlsx,csv" style="shape=image;html=1;verticalAlign=top;verticalLabelPosition=bottom;labelBackgroundColor=#ffffff;imageAspect=0;aspect=fixed;image=https://cdn1.iconfinder.com/data/icons/100-basic-for-user-interface/32/73-files-128.png" vertex="1" parent="1">
          <mxGeometry x="479.9999999999999" y="189.07" width="25.93" height="25.93" as="geometry" />
        </mxCell>
        <mxCell id="LDrWbwDbZ2x0m2KrkAPK-33" value="" style="endArrow=classic;html=1;rounded=0;" edge="1" parent="1" source="LDrWbwDbZ2x0m2KrkAPK-12" target="LDrWbwDbZ2x0m2KrkAPK-15">
          <mxGeometry width="50" height="50" relative="1" as="geometry">
            <mxPoint x="640" y="455" as="sourcePoint" />
            <mxPoint x="690" y="405" as="targetPoint" />
          </mxGeometry>
        </mxCell>
        <mxCell id="LDrWbwDbZ2x0m2KrkAPK-36" value="output" style="sketch=0;outlineConnect=0;fontColor=#232F3E;gradientColor=none;strokeColor=#000000;fillColor=#ffffff;dashed=0;verticalLabelPosition=bottom;verticalAlign=top;align=center;html=1;fontSize=12;fontStyle=0;aspect=fixed;shape=mxgraph.aws4.resourceIcon;resIcon=mxgraph.aws4.lambda_function;" vertex="1" parent="1">
          <mxGeometry x="379.9999999999999" y="459" width="60" height="60" as="geometry" />
        </mxCell>
        <mxCell id="LDrWbwDbZ2x0m2KrkAPK-44" style="edgeStyle=none;rounded=0;orthogonalLoop=1;jettySize=auto;html=1;" edge="1" parent="1" source="LDrWbwDbZ2x0m2KrkAPK-22" target="LDrWbwDbZ2x0m2KrkAPK-19">
          <mxGeometry relative="1" as="geometry">
            <mxPoint x="910" y="579" as="sourcePoint" />
            <mxPoint x="600" y="355" as="targetPoint" />
          </mxGeometry>
        </mxCell>
        <mxCell id="LDrWbwDbZ2x0m2KrkAPK-45" style="edgeStyle=none;rounded=0;orthogonalLoop=1;jettySize=auto;html=1;entryX=0.25;entryY=0;entryDx=0;entryDy=0;entryPerimeter=0;" edge="1" parent="1" source="LDrWbwDbZ2x0m2KrkAPK-15" target="LDrWbwDbZ2x0m2KrkAPK-19">
          <mxGeometry relative="1" as="geometry">
            <mxPoint x="850" y="375" as="sourcePoint" />
            <mxPoint x="750" y="485" as="targetPoint" />
          </mxGeometry>
        </mxCell>
        <mxCell id="LDrWbwDbZ2x0m2KrkAPK-49" style="edgeStyle=none;rounded=0;orthogonalLoop=1;jettySize=auto;html=1;" edge="1" parent="1" source="LDrWbwDbZ2x0m2KrkAPK-22" target="LDrWbwDbZ2x0m2KrkAPK-36">
          <mxGeometry relative="1" as="geometry">
            <mxPoint x="820" y="511" as="sourcePoint" />
            <mxPoint x="758" y="462" as="targetPoint" />
          </mxGeometry>
        </mxCell>
        <mxCell id="LDrWbwDbZ2x0m2KrkAPK-50" value="validate" style="sketch=0;outlineConnect=0;fontColor=#232F3E;gradientColor=none;strokeColor=#000000;fillColor=#ffffff;dashed=0;verticalLabelPosition=bottom;verticalAlign=top;align=center;html=1;fontSize=12;fontStyle=0;aspect=fixed;shape=mxgraph.aws4.resourceIcon;resIcon=mxgraph.aws4.lambda_function;" vertex="1" parent="1">
          <mxGeometry x="900" y="220" width="60" height="60" as="geometry" />
        </mxCell>
        <mxCell id="LDrWbwDbZ2x0m2KrkAPK-51" value="extract" style="sketch=0;outlineConnect=0;fontColor=#232F3E;gradientColor=none;strokeColor=#000000;fillColor=#ffffff;dashed=0;verticalLabelPosition=bottom;verticalAlign=top;align=center;html=1;fontSize=12;fontStyle=0;aspect=fixed;shape=mxgraph.aws4.resourceIcon;resIcon=mxgraph.aws4.lambda_function;" vertex="1" parent="1">
          <mxGeometry x="900" y="312.5" width="60" height="60" as="geometry" />
        </mxCell>
        <mxCell id="LDrWbwDbZ2x0m2KrkAPK-52" value="transform" style="sketch=0;outlineConnect=0;fontColor=#232F3E;gradientColor=none;strokeColor=#000000;fillColor=#ffffff;dashed=0;verticalLabelPosition=bottom;verticalAlign=top;align=center;html=1;fontSize=12;fontStyle=0;aspect=fixed;shape=mxgraph.aws4.resourceIcon;resIcon=mxgraph.aws4.lambda_function;" vertex="1" parent="1">
          <mxGeometry x="900" y="403.56" width="60" height="60" as="geometry" />
        </mxCell>
        <mxCell id="LDrWbwDbZ2x0m2KrkAPK-55" value="" style="endArrow=classic;html=1;rounded=0;" edge="1" parent="1" target="LDrWbwDbZ2x0m2KrkAPK-50">
          <mxGeometry width="50" height="50" relative="1" as="geometry">
            <mxPoint x="610" y="249.38" as="sourcePoint" />
            <mxPoint x="720" y="249.38" as="targetPoint" />
          </mxGeometry>
        </mxCell>
        <mxCell id="LDrWbwDbZ2x0m2KrkAPK-56" value="" style="endArrow=classic;html=1;rounded=0;" edge="1" parent="1" source="LDrWbwDbZ2x0m2KrkAPK-54" target="LDrWbwDbZ2x0m2KrkAPK-22">
          <mxGeometry width="50" height="50" relative="1" as="geometry">
            <mxPoint x="1120" y="445" as="sourcePoint" />
            <mxPoint x="1410" y="445.62" as="targetPoint" />
          </mxGeometry>
        </mxCell>
        <mxCell id="LDrWbwDbZ2x0m2KrkAPK-58" value="" style="endArrow=classic;html=1;rounded=0;" edge="1" parent="1" source="LDrWbwDbZ2x0m2KrkAPK-3" target="LDrWbwDbZ2x0m2KrkAPK-12">
          <mxGeometry width="50" height="50" relative="1" as="geometry">
            <mxPoint x="146.47" y="355" as="sourcePoint" />
            <mxPoint x="266.47" y="235" as="targetPoint" />
          </mxGeometry>
        </mxCell>
        <mxCell id="LDrWbwDbZ2x0m2KrkAPK-62" value="csv, json" style="shape=image;html=1;verticalAlign=top;verticalLabelPosition=bottom;labelBackgroundColor=#ffffff;imageAspect=0;aspect=fixed;image=https://cdn1.iconfinder.com/data/icons/100-basic-for-user-interface/32/73-files-128.png" vertex="1" parent="1">
          <mxGeometry x="960" y="570" width="25.93" height="25.93" as="geometry" />
        </mxCell>
        <mxCell id="LDrWbwDbZ2x0m2KrkAPK-63" value="" style="endArrow=classic;html=1;rounded=0;" edge="1" parent="1" source="LDrWbwDbZ2x0m2KrkAPK-36">
          <mxGeometry width="50" height="50" relative="1" as="geometry">
            <mxPoint x="251.47" y="410" as="sourcePoint" />
            <mxPoint x="246.47" y="435" as="targetPoint" />
          </mxGeometry>
        </mxCell>
        <mxCell id="LDrWbwDbZ2x0m2KrkAPK-67" value="aws athena" style="sketch=0;points=[[0,0,0],[0.25,0,0],[0.5,0,0],[0.75,0,0],[1,0,0],[0,1,0],[0.25,1,0],[0.5,1,0],[0.75,1,0],[1,1,0],[0,0.25,0],[0,0.5,0],[0,0.75,0],[1,0.25,0],[1,0.5,0],[1,0.75,0]];outlineConnect=0;fontColor=#232F3E;gradientColor=none;gradientDirection=north;fillColor=#FFFFFF;strokeColor=#000000;dashed=0;verticalLabelPosition=bottom;verticalAlign=top;align=center;html=1;fontSize=12;fontStyle=0;aspect=fixed;shape=mxgraph.aws4.resourceIcon;resIcon=mxgraph.aws4.athena;" vertex="1" parent="1">
          <mxGeometry x="282.28" y="607.96" width="70" height="70" as="geometry" />
        </mxCell>
        <mxCell id="LDrWbwDbZ2x0m2KrkAPK-68" style="edgeStyle=none;rounded=0;orthogonalLoop=1;jettySize=auto;html=1;" edge="1" parent="1" target="LDrWbwDbZ2x0m2KrkAPK-67">
          <mxGeometry relative="1" as="geometry">
            <mxPoint x="900" y="645" as="sourcePoint" />
            <mxPoint x="360" y="770" as="targetPoint" />
          </mxGeometry>
        </mxCell>
        <mxCell id="LDrWbwDbZ2x0m2KrkAPK-69" value="" style="endArrow=classic;html=1;rounded=0;exitX=0;exitY=0.5;exitDx=0;exitDy=0;exitPerimeter=0;" edge="1" parent="1" source="LDrWbwDbZ2x0m2KrkAPK-67">
          <mxGeometry width="50" height="50" relative="1" as="geometry">
            <mxPoint x="283.90999999999997" y="750" as="sourcePoint" />
            <mxPoint x="120" y="470" as="targetPoint" />
          </mxGeometry>
        </mxCell>
      </root>
    </mxGraphModel>
  </diagram>
</mxfile>
